<svg width="18" height="18" viewBox="0 0 18 18" fill="none" xmlns="http://www.w3.org/2000/svg">
<path d="M9.75 7.5H2.25C1.8375 7.5 1.5 7.8375 1.5 8.25C1.5 8.6625 1.8375 9 2.25 9H9.75C10.1625 9 10.5 8.6625 10.5 8.25C10.5 7.8375 10.1625 7.5 9.75 7.5ZM9.75 4.5H2.25C1.8375 4.5 1.5 4.8375 1.5 5.25C1.5 5.6625 1.8375 6 2.25 6H9.75C10.1625 6 10.5 5.6625 10.5 5.25C10.5 4.8375 10.1625 4.5 9.75 4.5ZM13.5 10.5V8.25C13.5 7.8375 13.1625 7.5 12.75 7.5C12.3375 7.5 12 7.8375 12 8.25V10.5H9.75C9.3375 10.5 9 10.8375 9 11.25C9 11.6625 9.3375 12 9.75 12H12V14.25C12 14.6625 12.3375 15 12.75 15C13.1625 15 13.5 14.6625 13.5 14.25V12H15.75C16.1625 12 16.5 11.6625 16.5 11.25C16.5 10.8375 16.1625 10.5 15.75 10.5H13.5ZM2.25 12H6.75C7.1625 12 7.5 11.6625 7.5 11.25C7.5 10.8375 7.1625 10.5 6.75 10.5H2.25C1.8375 10.5 1.5 10.8375 1.5 11.25C1.5 11.6625 1.8375 12 2.25 12Z" fill="white"/>
</svg>
