<svg width="16" height="16" viewBox="0 0 16 16" fill="none" xmlns="http://www.w3.org/2000/svg">
<path d="M7.33594 2.38543C8.25892 2.38543 9.16117 2.65912 9.9286 3.1719C10.696 3.68468 11.2942 4.41352 11.6474 5.26624C12.0006 6.11896 12.093 7.05727 11.9129 7.96252C11.7329 8.86776 11.2884 9.69929 10.6358 10.3519C9.98313 11.0046 9.15161 11.449 8.24636 11.6291C7.34112 11.8092 6.40281 11.7167 5.55008 11.3635C4.69736 11.0103 3.96853 10.4122 3.45575 9.64475C2.94297 8.87732 2.66927 7.97507 2.66927 7.05209C2.66927 5.81442 3.16094 4.62743 4.03611 3.75226C4.91128 2.87709 6.09826 2.38543 7.33594 2.38543ZM7.33594 1.05209C6.14925 1.05209 4.98921 1.40399 4.00252 2.06328C3.01582 2.72256 2.24679 3.65964 1.79266 4.75599C1.33854 5.85235 1.21972 7.05875 1.45123 8.22263C1.68274 9.38652 2.25418 10.4556 3.0933 11.2947C3.93241 12.1339 5.00151 12.7053 6.1654 12.9368C7.32928 13.1683 8.53568 13.0495 9.63204 12.5954C10.7284 12.1412 11.6655 11.3722 12.3248 10.3855C12.984 9.39882 13.3359 8.23878 13.3359 7.05209C13.3359 5.46079 12.7038 3.93468 11.5786 2.80946C10.4534 1.68424 8.92724 1.05209 7.33594 1.05209Z" fill="white"/>
<path d="M14.0024 14.3878C13.8257 14.3874 13.6565 14.3169 13.5317 14.1918L12.1984 12.8584C12.1347 12.7969 12.0839 12.7234 12.049 12.6421C12.0141 12.5607 11.9957 12.4732 11.9949 12.3847C11.9941 12.2962 12.011 12.2084 12.0445 12.1265C12.078 12.0445 12.1275 11.9701 12.1901 11.9075C12.2527 11.8449 12.3272 11.7954 12.4091 11.7619C12.491 11.7284 12.5788 11.7115 12.6673 11.7123C12.7559 11.713 12.8433 11.7314 12.9247 11.7664C13.006 11.8013 13.0796 11.8521 13.1411 11.9158L14.4744 13.2491C14.5679 13.3424 14.6316 13.4612 14.6574 13.5907C14.6832 13.7202 14.67 13.8544 14.6194 13.9764C14.5689 14.0984 14.4833 14.2026 14.3734 14.2758C14.2636 14.349 14.1344 14.388 14.0024 14.3878Z" fill="white"/>
</svg>
