<svg width="27" height="24" viewBox="0 0 27 24" fill="none" xmlns="http://www.w3.org/2000/svg">
<path d="M16.9368 14.0001H16.0768L15.772 13.7301C17.0784 12.3301 17.7533 10.4201 17.3832 8.39014C16.8715 5.61014 14.3459 3.39014 11.2978 3.05014C6.69289 2.53014 2.8174 6.09014 3.38348 10.3201C3.75361 13.1201 6.17036 15.4401 9.19673 15.9101C11.4066 16.2501 13.4859 15.6301 15.01 14.4301L15.3039 14.7101V15.5001L19.9305 19.7501C20.3769 20.1601 21.1063 20.1601 21.5526 19.7501C21.9989 19.3401 21.9989 18.6701 21.5526 18.2601L16.9368 14.0001ZM10.4051 14.0001C7.69443 14.0001 5.5063 11.9901 5.5063 9.50014C5.5063 7.01014 7.69443 5.00014 10.4051 5.00014C13.1158 5.00014 15.3039 7.01014 15.3039 9.50014C15.3039 11.9901 13.1158 14.0001 10.4051 14.0001Z" fill="#637580"/>
</svg>
