<svg width="156" height="34" viewBox="0 0 156 34" fill="none" xmlns="http://www.w3.org/2000/svg">
<path d="M19.2874 9.96564C19.1563 8.66273 18.5937 7.65055 17.5996 6.92911C16.6054 6.20766 15.2562 5.84694 13.552 5.84694C12.394 5.84694 11.4162 6.00846 10.6187 6.33149C9.82124 6.64376 9.20946 7.07986 8.7834 7.63978C8.36826 8.19971 8.1607 8.83502 8.1607 9.54569C8.13885 10.1379 8.26448 10.6548 8.5376 11.0963C8.82164 11.5377 9.20946 11.92 9.70107 12.243C10.1927 12.5553 10.7608 12.8299 11.4053 13.0668C12.0499 13.2929 12.7381 13.4867 13.4701 13.6482L16.4853 14.3589C17.9492 14.682 19.2929 15.1127 20.5164 15.6511C21.74 16.1895 22.7997 16.8517 23.6955 17.6377C24.5913 18.4238 25.285 19.3498 25.7767 20.4158C26.2792 21.4818 26.5359 22.704 26.5468 24.0823C26.5359 26.1066 26.0115 27.8618 24.9737 29.3478C23.9468 30.8229 22.461 31.9697 20.5164 32.7881C18.5828 33.5957 16.2504 33.9995 13.5192 33.9995C10.8099 33.9995 8.4502 33.5903 6.44007 32.7719C4.44086 31.9536 2.87864 30.7422 1.7534 29.1378C0.639091 27.5226 0.0546232 25.5252 0 23.1455H6.86613C6.9426 24.2546 7.26488 25.1806 7.83296 25.9236C8.41196 26.6558 9.18215 27.2103 10.1435 27.5872C11.1158 27.9533 12.2137 28.1364 13.4373 28.1364C14.639 28.1364 15.6823 27.9641 16.5672 27.6195C17.463 27.2749 18.1567 26.7958 18.6483 26.182C19.1399 25.5682 19.3857 24.8629 19.3857 24.0661C19.3857 23.3231 19.1618 22.6986 18.7139 22.1925C18.2769 21.6864 17.6323 21.2557 16.7802 20.9004C15.939 20.545 14.9067 20.222 13.6831 19.9313L10.0288 19.0268C7.19933 18.3484 4.96524 17.2878 3.32655 15.8449C1.68786 14.402 0.87397 12.4584 0.884895 10.0141C0.87397 8.01127 1.41474 6.2615 2.5072 4.76477C3.61059 3.26804 5.12365 2.09973 7.04638 1.25984C8.96912 0.419946 11.154 0 13.6012 0C16.092 0 18.266 0.419946 20.1232 1.25984C21.9913 2.09973 23.4443 3.26804 24.4821 4.76477C25.5199 6.2615 26.0552 7.99512 26.088 9.96564H19.2874Z" fill="#228650"/>
<path d="M91.6667 0V34H85.538L70.9372 12.7114H70.6914V34H63.5959V0H69.8229L84.309 21.2557H84.6039V0H91.6667Z" fill="#228650"/>
<path d="M117.52 0H124.616V21.9341C124.616 24.3461 124.031 26.4566 122.862 28.2656C121.704 30.0746 120.082 31.4852 117.995 32.4973C115.909 33.4988 113.478 33.9995 110.703 33.9995C107.918 33.9995 105.481 33.4988 103.395 32.4973C101.308 31.4852 99.6858 30.0746 98.5278 28.2656C97.3698 26.4566 96.7908 24.3461 96.7908 21.9341V0H103.886V21.3365C103.886 22.5963 104.165 23.7162 104.722 24.696C105.29 25.6759 106.088 26.4458 107.115 27.0057C108.141 27.5657 109.338 27.8456 110.703 27.8456C112.08 27.8456 113.276 27.5657 114.292 27.0057C115.319 26.4458 116.111 25.6759 116.668 24.696C117.236 23.7162 117.52 22.5963 117.52 21.3365V0Z" fill="#228650"/>
<path d="M128.437 6.21843V0H156V6.21843H145.725V34H138.712V6.21843H128.437Z" fill="#228650"/>
<path d="M37.3637 34L30.3891 34L30.3891 12.2282C30.3891 9.78366 30.9636 7.64468 32.1126 5.81127C33.2509 3.97785 34.8455 2.54823 36.8966 1.52239C38.9476 0.507464 41.3369 2.40129e-06 44.0644 2.63632e-06C46.8027 2.87227e-06 49.1974 0.507465 51.2484 1.52239C53.2994 2.54823 54.8941 3.97785 56.0323 5.81127C57.1706 7.64468 57.7397 9.78366 57.7397 12.2282L57.7397 34L50.7652 34L50.7652 12.8339C50.7652 11.5571 50.4913 10.4221 49.9437 9.42899C49.3853 8.43589 48.6014 7.65559 47.592 7.08811C46.5826 6.52063 45.4067 6.23688 44.0644 6.23688C42.7114 6.23688 41.5355 6.52062 40.5369 7.08811C39.5275 7.65559 38.7489 8.43589 38.2013 9.42899C37.6429 10.4221 37.3637 11.5571 37.3637 12.8339L37.3637 34Z" fill="#228650"/>
<ellipse cx="44.0647" cy="21.5002" rx="3.54545" ry="3.5" fill="#228650"/>
</svg>
